<?xml version="1.0" encoding="UTF-8"?>
<svg id="_étiquette" data-name="étiquette" xmlns="http://www.w3.org/2000/svg" viewBox="0 0 203.12 191.49">
  <defs>
    <style>
      .cls-1 {
        stroke-width: 3px;
      }

      .cls-1, .cls-2, .cls-3, .cls-4, .cls-5, .cls-6, .cls-7 {
        stroke: #ffc800;
      }

      .cls-1, .cls-2, .cls-3, .cls-4, .cls-5, .cls-7 {
        stroke-linejoin: round;
      }

      .cls-1, .cls-6, .cls-7 {
        fill: none;
      }

      .cls-2 {
        stroke-width: .25px;
      }

      .cls-2, .cls-3, .cls-4, .cls-5 {
        fill: #fff;
      }

      .cls-3 {
        stroke-width: .4px;
      }

      .cls-4 {
        stroke-width: 1.65px;
      }

      .cls-5 {
        stroke-width: .5px;
      }

      .cls-8 {
        fill: #ffc800;
      }

      .cls-6 {
        stroke-miterlimit: 10;
        stroke-width: .42px;
      }

      .cls-6, .cls-7 {
        stroke-linecap: round;
      }

      .cls-7 {
        stroke-width: 4px;
      }
    </style>
  </defs>
  <path class="cls-5" d="M42.53,148.86c-.23-2.62-7.62-9.99-13.36-4.26-7.12,9.6,20.79,27.69,21.36,12.09,5.75-3.75-3.65-11-8-7.83Z"/>
  <path class="cls-5" d="M101.5,128.84c-.9,2.24,1.94,11.42,8.88,9.16,9.63-4.83-5.11-31.5-12.01-18.97-6.13.63-1.64,10.55,3.13,9.81Z"/>
  <path class="cls-7" d="M60.36,121.98c-7.02,5.81-13.16,20.14-13.14,28.79"/>
  <path class="cls-8" d="M110.87,67.64c.33.57.34,1.28.01,1.85-4.07,7.16-10.53,17.28-20.3,28.61-6,6.95-24.11,27.96-30.72,26.01,21.72-17.86,47.5-62.46,47.5-62.46l3.5,5.99Z"/>
  <path class="cls-8" d="M117.53,33.01c-.13.1-.25.18-.36.24,0,0,0,0,0,0s0,0,0,0c-17.12,11.24-21.47,27.6-21.57,30.15l-2.91.3-7.15.66s.03-18.82,22.08-35.69h8.86s1.12.19,1.78,2.43c.27.91-.23,1.53-.71,1.89Z"/>
  <path class="cls-4" d="M106.8,62.32s-25.47,43.53-46.94,60.96c-3.06-.89-5.43-7.18,5.27-39.34,0,0,0,0,0,0h0c1.62-3.68,3.43-8.06,3.43-8.06l-18.11,2.05c-3.36-4.8-6.55-11.73-5.64-20.1,1.13-10.49,10.91-24.16,14.55-27.4.66-.59,1.51-.91,2.4-.91h45.84c-22.04,16.47-22.08,34.86-22.08,34.86l7.15-.65,2.91-.29,11.22-1.12Z"/>
  <path class="cls-8" d="M68.57,75.87s-1.91,4.6-3.61,8.46c-2.49.27-4.98.53-7.47.79-.97.1-1.94-.23-2.65-.91-1.36-1.31-3.36-3.42-5.3-6.2l19.03-2.15Z"/>
  <path class="cls-1" d="M57.51,83.53c-10.21,1-17.55-4.16-19.43-5.11"/>
  <g>
    <path class="cls-3" d="M32.38,80.46s0-.01,0-.02c-.25-.06-.92-.26-1.42-.87-.13-.17-.88-1.09-.47-1.94.3-.61,1.03-.77,1.16-.8-.04-.11-.49-1.31.23-2.37.42-.62,1.03-.87,1.31-.96.04-.01.07-.02.1-.03-.07-.27-.13-.69.08-1.02.55-.87,2.47-.38,2.73-.31.43.12,1.31.43,2.16,1.32l.02.02c.14,0,1.79.08,2.57,1.41.35.58.38,1.16.38,1.48.33.05.76.16,1.01.5.61.81-.2,2.29-.72,3.22-.75,1.36-1.56,2.83-2.81,2.8-.54,0-1.01-.29-1.36-.61-.29.21-.61.36-.96.47-1.24.37-2.54-.07-3.31-.92-.45-.5-.63-1.04-.71-1.36"/>
    <path class="cls-3" d="M38.26,73.45c.18.51.1,1.05-.22,1.41-.26.3-.67.46-1.1.44-.12,0-.23-.01-.35-.04-.42-.13-1.4-.66-2.42-1.23"/>
    <path class="cls-3" d="M33.04,76.9c1.48.74,1.56.78,2.28.97.03,0,.06.01.09.01.56.09,1.13-.1,1.49-.51.47-.54.52-1.43.03-2.08"/>
    <path class="cls-3" d="M32.38,80.46c.6.08,1.07.07,1.54.14.64,0,1.51-.24,1.89-.66.5-.57.25-1.32-.4-2.05"/>
    <polyline class="cls-3" points="39.24 75.76 37.76 77.53 36.66 80.77"/>
    <line class="cls-3" x1="37.76" y1="77.53" x2="37.06" y2="77.16"/>
    <path class="cls-3" d="M37.35,82.27c.67-.47,1.35-1.44,1.52-2.28"/>
  </g>
  <path class="cls-8" d="M55.69,44.73c-.17-.32,1.29-1.84,3.2-2.16,1.99-.33,3.94.73,3.87,1.09-.05.27-1.23.02-3.66.4-2.3.36-3.29.91-3.42.67Z"/>
  <path class="cls-8" d="M71.61,44.67c-.16-.32,1.32-1.82,3.24-2.11,2-.3,3.92.8,3.85,1.16-.05.27-1.23,0-3.67.34-2.3.32-3.31.85-3.43.61Z"/>
  <ellipse class="cls-2" cx="59.29" cy="51.3" rx="4.36" ry="5.72"/>
  <ellipse class="cls-8" cx="57.47" cy="51.27" rx="2.48" ry="3.56"/>
  <ellipse class="cls-2" cx="74.82" cy="51.3" rx="4.36" ry="5.72"/>
  <ellipse class="cls-8" cx="73.03" cy="51.27" rx="2.48" ry="3.56"/>
  <path class="cls-8" d="M66.01,65.16c3.96-.63,5.73-3.3,6.18-2.73.57.72-1.33,4.34-4.47,5.22-3.88,1.08-8.06-2.44-7.78-3.3.19-.57,2.23,1.42,6.07.81Z"/>
  <path class="cls-7" d="M75.05,109.45c-.2.28,2.05,16.6,7.07,21.8,4.02,4.16,10.85-1.19,17.49-6.99"/>
  <path class="cls-1" d="M102.51,77.58c.91-.23,4.81-1.13,8.58,1.07,3.76,2.2,5.91,6.63,5.51,11.34"/>
  <path class="cls-5" d="M123.55,97.33c-.1.7-.39,2.82-1.62,3.16-.44.13-.88-.02-1.21-.19h0c-.06.14-.64,1.42-2.07,1.75-1.12.25-2.01-.27-2.19-.39,0,0-.02,0-.02.02-.2.14-1.4.94-2.63.5-1.32-.47-2.19-2.19-1.68-4-.02,0-.03,0-.04-.02h0c-.35-.13-1.14-.49-1.63-1.33-.46-.81-.38-1.59-.32-2.14.25-2.31,2.04-3.9,2.68-4.42,0,0,.02-.02.03-.03-.15-.43-.31-1.14,0-1.74.51-.96,1.88-1.05,3.55-1.16.06,0,.11,0,.17,0,1.85-.13,2.89-.17,3.59.58.68.75.64,1.84.55,2.47.35.22.7.49,1.04.82,2.33,2.31,1.89,5.49,1.81,6.13Z"/>
  <path class="cls-6" d="M112.81,90.26c.75-.29,1.39-.46,1.86-.56"/>
  <path class="cls-6" d="M112.6,95.66c.27.39.65,1.04.83,1.93.13.62.12,1.15.09,1.55"/>
  <path class="cls-6" d="M112.09,98.16c.19-.03.4-.08.6-.14.28-.09.53-.21.75-.35"/>
  <path class="cls-6" d="M117.16,98.9c.04.34.14,1.36-.48,2.41-.08.13-.15.25-.22.35"/>
  <path class="cls-6" d="M120.8,98.22c.07.3.23,1.13-.08,2.08"/>
  <path class="cls-6" d="M120.7,90.38c-.78-.49-1.52-.68-2-.73"/>
  <path class="cls-5" d="M98.03,119.07c1.66-.19,2.53.46,2.53.46"/>
  <path class="cls-5" d="M103.42,125.39c.19,2.75-1.06,3.36-1.92,3.45"/>
  <path class="cls-5" d="M50.84,156.47c-1.55,1.03-2.73.86-2.73.86"/>
  <path class="cls-5" d="M42.35,153.17c-1.56-2.54-.63-3.77.17-4.3"/>
  <path class="cls-8" d="M138.49,49.73l-26.03.9c-.5.02-.91-.37-.93-.87-.02-.52.41-.95.93-.93,0,0,26.03.9,26.03.9h0Z"/>
  <path class="cls-8" d="M150.61,42.29l-29.75,1.35c-.75.03-1.38-.54-1.41-1.29-.04-.79.62-1.45,1.41-1.41,0,0,29.75,1.35,29.75,1.35h0Z"/>
  <path class="cls-8" d="M162.33,81.3l-26.03.9c-.5.02-.91-.37-.93-.87-.02-.52.41-.95.93-.93,0,0,26.03.9,26.03.9h0Z"/>
  <path class="cls-8" d="M157.87,75.67l-29.75.9c-.5.02-.91-.38-.93-.87-.02-.52.41-.94.93-.93,0,0,29.75.9,29.75.9h0Z"/>
  <path class="cls-8" d="M154.83,119.22l-26.03.9c-.5.02-.91-.37-.93-.87-.02-.52.41-.95.93-.93,0,0,26.03.9,26.03.9h0Z"/>
  <path class="cls-8" d="M175.12,111.78l-60.64,1.35c-.75.02-1.36-.57-1.38-1.32-.02-.75.57-1.36,1.32-1.38.06,0,60.63,1.35,60.7,1.35h0Z"/>
</svg>