<?xml version="1.0" encoding="UTF-8"?>
<svg id="Calque_2" data-name="Calque 2" xmlns="http://www.w3.org/2000/svg" viewBox="0 0 671.7 671.7">
  <defs>
    <style>
      .cls-1 {
        stroke-width: .75px;
      }

      .cls-1, .cls-2, .cls-3 {
        stroke-miterlimit: 10;
      }

      .cls-1, .cls-2, .cls-3, .cls-4 {
        stroke: #78ff88;
      }

      .cls-1, .cls-3, .cls-5, .cls-4 {
        fill: #fff;
      }

      .cls-6 {
        font-family: DunbarTall-UltraItalic, 'Dunbar Tall';
        font-size: 54px;
        font-style: italic;
      }

      .cls-6, .cls-7 {
        fill: #78ff88;
      }

      .cls-2 {
        fill: none;
        stroke-width: 6px;
      }

      .cls-4 {
        stroke-linejoin: round;
        stroke-width: 5px;
      }
    </style>
  </defs>
  <path class="cls-7" d="M426.59,249.06c1.01,1.73,1.03,3.86.04,5.61-12.34,21.69-31.9,52.36-61.48,86.67-18.17,21.07-73.02,84.7-93.06,78.79,65.8-54.1,143.9-189.21,143.9-189.21l10.61,18.14Z"/>
  <path class="cls-4" d="M414.26,232.93s-77.17,131.86-142.18,184.66c-9.26-2.69-16.45-21.76,15.95-119.16,0-.01,0-.02,0-.03h0c4.9-11.14,10.4-24.41,10.4-24.41l-54.86,6.2c-10.17-14.55-19.84-35.52-17.1-60.89,3.43-31.78,33.04-73.2,44.06-82.99,2-1.78,4.59-2.75,7.27-2.75h138.86c-66.78,49.9-66.88,105.61-66.88,105.61l21.66-1.96,8.83-.88,33.98-3.39Z"/>
  <path class="cls-7" d="M446.77,144.16c-.38.3-.77.53-1.1.72-.01.01-.02.01-.03.02s-.01.01-.02.01c-51.87,34.05-65.05,83.61-65.33,91.35l-8.83.9-21.66,2.01s.1-57.02,66.88-108.11h26.85s3.39.56,5.4,7.37c.82,2.75-.69,4.63-2.16,5.73Z"/>
  <path class="cls-7" d="M298.45,273.99s-5.78,13.94-10.93,25.64c-7.55.81-15.09,1.6-22.63,2.41-2.95.31-5.88-.7-8.02-2.76-4.13-3.97-10.18-10.35-16.06-18.77l57.65-6.52Z"/>
  <path class="cls-7" d="M261.78,170.95c-.4-1.14,5.21-5.56,11.78-5.72,6.84-.16,12.84,4.35,12.46,5.51-.29.89-4.15-.52-12.46-.41-7.87.11-11.48,1.47-11.78.61Z"/>
  <path class="cls-7" d="M315.73,170.95c-.4-1.14,5.21-5.56,11.78-5.72,6.84-.16,12.84,4.35,12.46,5.51-.29.89-4.15-.52-12.46-.41-7.87.11-11.48,1.47-11.78.61Z"/>
  <ellipse class="cls-1" cx="274.46" cy="196.82" rx="14.78" ry="19.35"/>
  <ellipse class="cls-7" cx="280.86" cy="196.71" rx="8.4" ry="12.05"/>
  <ellipse class="cls-1" cx="327.04" cy="196.82" rx="14.78" ry="19.35"/>
  <ellipse class="cls-7" cx="300.92" cy="223.43" rx="2.96" ry="4.09"/>
  <path class="cls-2" d="M410.7,264.45c18.43-11.62,24.02-29.84,25.94-33.87"/>
  <g>
    <path class="cls-3" d="M451.61,225.29c.33.71.78,1.98.65,3.57-.19,2.71-1.99,5.42-4.85,6.52-.79.31-1.62.48-2.47.51-.2,1.11-.65,2.31-1.65,3.12-2.31,1.86-5.95.3-9.33-1.16-2.33-1-6.01-2.58-6.04-4.98,0-1,.63-1.85,1.17-2.41-.46-.59-1.25-1.73-1.45-3.32-.45-3.62,2.52-6.16,2.77-6.37v-.07c.32-2.89,1.51-4.75,2.14-5.6.39-.5,3.26-4.2,5.56-3.37.89.31,1.38,1.17,1.64,1.79.06-.03.12-.06.22-.09.67-.24,2.16-.65,3.85-.1,2.87.94,3.79,3.83,3.87,4.1.3-.14,1.88-.9,3.34-.19,2,.98,1.95,3.79,1.95,4.31-.03,1.87-1,3.21-1.39,3.69.01.02,0,.03.02.05"/>
    <path class="cls-3" d="M438.93,215.85c-1.09,2.53-2.14,4.96-2.75,5.81-.18.22-.37.42-.59.59-.79.66-1.79.96-2.71.78-1.11-.21-2.06-1.1-2.45-2.32"/>
    <path class="cls-3" d="M435.59,222.25c.04,1.91,1.42,3.52,3.08,3.84,1.27.24,2.61-.24,3.53-1.22.05-.04.1-.09.14-.15,1.07-1.41,1.17-1.6,2.86-5.14"/>
    <path class="cls-3" d="M442.2,224.87c-.15,2.32.47,4.08,2.23,4.42,1.32.26,3.29-.58,4.49-1.5.77-.83,1.67-1.49,2.68-2.51"/>
    <polyline class="cls-3" points="431.96 226.46 437.31 227.62 444.06 232.09"/>
    <line class="cls-3" x1="438.08" y1="225.91" x2="437.31" y2="227.62"/>
    <path class="cls-3" d="M438.79,233.83c1.52,1.32,4.21,2.15,6.15,2.06"/>
  </g>
  <path class="cls-2" d="M264.96,298.75c-21.68,2.13-37.27-8.84-41.26-10.84"/>
  <g>
    <path class="cls-3" d="M211.6,292.24s-.01-.02-.01-.04c-.54-.13-1.96-.54-3.01-1.85-.29-.36-1.87-2.32-.99-4.12.64-1.3,2.18-1.64,2.47-1.7-.09-.23-1.03-2.79.49-5.03.89-1.31,2.18-1.85,2.78-2.04.08-.03.14-.04.2-.05-.15-.58-.28-1.46.18-2.17,1.18-1.85,5.24-.8,5.79-.67.91.25,2.78.91,4.58,2.79l.05.04c.29,0,3.79.17,5.47,2.98.73,1.23.8,2.47.8,3.15.69.1,1.61.34,2.15,1.06,1.3,1.71-.43,4.86-1.54,6.85-1.59,2.89-3.31,6-5.97,5.96-1.15-.02-2.13-.62-2.88-1.3-.61.44-1.3.77-2.03.99-2.64.79-5.4-.14-7.02-1.95-.96-1.06-1.34-2.2-1.5-2.89"/>
    <path class="cls-3" d="M224.08,277.35c.39,1.08.21,2.23-.46,2.99-.55.63-1.43.97-2.35.94-.25,0-.5-.03-.74-.09-.9-.27-2.98-1.41-5.14-2.6"/>
    <path class="cls-3" d="M213,284.68c3.14,1.58,3.32,1.66,4.85,2.07.06.02.12.02.18.03,1.18.19,2.41-.21,3.17-1.08,1-1.14,1.1-3.04.07-4.41"/>
    <path class="cls-3" d="M211.6,292.24c1.28.17,2.28.14,3.28.3,1.36,0,3.21-.5,4.01-1.41,1.06-1.21.52-2.8-.85-4.36"/>
    <polyline class="cls-3" points="226.17 282.26 223.01 286.03 220.69 292.9"/>
    <line class="cls-3" x1="223.01" y1="286.03" x2="221.53" y2="285.24"/>
    <path class="cls-3" d="M222.16,296.08c1.42-1,2.87-3.07,3.22-4.84"/>
  </g>
  <text class="cls-6" transform="translate(123.79 442.32) rotate(39.34) scale(.97 1)"><tspan x="0" y="0">V</tspan></text>
  <text class="cls-6" transform="translate(159.08 471.22) rotate(30.02) scale(.97 1)"><tspan x="0" y="0">O</tspan></text>
  <text class="cls-6" transform="translate(202.73 495.41) rotate(21.62) scale(.97 1)"><tspan x="0" y="0">L</tspan></text>
  <text class="cls-6" transform="translate(229.52 505.94) rotate(16.14) scale(.97 1)"><tspan x="0" y="0">T</tspan></text>
  <text class="cls-6" transform="translate(253.35 513.45) rotate(9.05) scale(.97 1)"><tspan x="0" y="0">A</tspan></text>
  <text class="cls-6" transform="translate(299.36 519.73) rotate(3.07) scale(.97 1)"><tspan x="0" y="0"> </tspan></text>
  <text class="cls-6" transform="translate(310.56 520.93) rotate(-2.37) scale(.97 1)"><tspan x="0" y="0">D</tspan></text>
  <text class="cls-6" transform="translate(353.12 518.86) rotate(-11.22) scale(.97 1)"><tspan x="0" y="0">R</tspan></text>
  <text class="cls-6" transform="translate(393.1 510.19) rotate(-17.78) scale(.97 1)"><tspan x="0" y="0">I</tspan></text>
  <text class="cls-6" transform="translate(413.42 504.31) rotate(-25.04) scale(.97 1)"><tspan x="0" y="0">N</tspan></text>
  <text class="cls-6" transform="translate(456.29 483.79) rotate(-35.28) scale(.97 1)"><tspan x="0" y="0">K</tspan></text>
  <text class="cls-6" transform="translate(492.18 457.6) rotate(-43.75) scale(.97 1)"><tspan x="0" y="0">S</tspan></text>
  <g>
    <path class="cls-5" d="M283.44,246.38c1.32,1.1,9.07,7.31,19.55,5.81,9.59-1.38,17.69-8.67,20.69-18.62"/>
    <path class="cls-7" d="M283.44,246.38c10.97,6.11,23.64,5.78,32.9-3.04,2.95-2.67,5.28-6.03,7.33-9.77-.45,4.25-2.21,8.46-5.03,11.91-8.76,11.15-26.03,11.85-35.21.91h0Z"/>
  </g>
  <ellipse class="cls-7" cx="333.54" cy="196.71" rx="8.4" ry="12.05"/>
</svg>